# xmcd
#
# Track frame offsets:
#	150
#	14195
#	32207
#	44922
#	57032
#	69005
#	80250
#	95677
#	106887
#	118005
#	127942
#	144110
#	155655
#	174345
#	192180
#	203160
#	216045
#	228090
#	238280
#	251312
#	264735
#	284637
#	301670
#	313360
#	327760
#
# Disc length: 4497
#
# Revision: 3
# Processed by: cddbd v1.5.1PL0 Copyright (c) Steve Scherf et al.
# Submitted via: CedeCatalogueitor 2.5 http://usuarios.lycos.es/kakasboy
# Normalized: r1:DSETVAR1,TDELIM( - ),TSWAP
#
DISCID=64118f19
DTITLE=Various Artist - Las 100 Mejores Canciones Del Country CD-4
DYEAR=1996
DGENRE=Country
TTITLE0=George Jones - Good Year For The Roses
TTITLE1=Don McLean - American Pie
TTITLE2=Kenny Rogers - Ruby Don't Take Your Love To Town
TTITLE3=Nancy Sinatra - These Boots Are Made For Walking
TTITLE4=Jack Scott - The Way I Walk
TTITLE5=Patsy Cline - Walking After Midnight
TTITLE6=Perfect Stranger - You Have The Right To Remain Silent
TTITLE7=Debby Boone - Are You In The Road To Loving Me Again
TTITLE8=The Kendalls - Heaven's Just A Sin Away
TTITLE9=Susan Raye - Put A Little Love In Your Heart
TTITLE10=Johnny Lee - Looking For Love
TTITLE11=Don Everly - So Sad To Watch Good Love Go Bad
TTITLE12=Guns and Butter - El Dorado
TTITLE13=Ricky Nelson - Garden Party
TTITLE14=Conway Twitty - Hello Darlin'
TTITLE15=Crystal Gayle - Talkin' In Your Sleep
TTITLE16=Feddy Fender - Wasted Days And Wasted Nights
TTITLE17=Wanda Jackson - Stupid Cupid
TTITLE18=Hank Locklin - Please Help Me I'm Falling
TTITLE19=Jimmy Dean - Big Bad John
TTITLE20=Marianne Flyner - Country Girl
TTITLE21=Lynn Anderson - Close To You
TTITLE22=Skeeter Davis - The End Of The World
TTITLE23=Don Gibson - I Can't Stop Lovin' You
TTITLE24=Pat Boone - Love Letters In The Sand
EXTD=
EXTT0=
EXTT1=
EXTT2=
EXTT3=
EXTT4=
EXTT5=
EXTT6=
EXTT7=
EXTT8=
EXTT9=
EXTT10=
EXTT11=
EXTT12=
EXTT13=
EXTT14=
EXTT15=
EXTT16=
EXTT17=
EXTT18=
EXTT19=
EXTT20=
EXTT21=
EXTT22=
EXTT23=
EXTT24=
PLAYORDER=
